<?xml version="1.0" encoding="iso-8859-1"?>
<!-- Generator: Adobe Illustrator 19.0.0, SVG Export Plug-In . SVG Version: 6.00 Build 0)  -->
<svg version="1.1" id="Layer_1" xmlns="http://www.w3.org/2000/svg" xmlns:xlink="http://www.w3.org/1999/xlink" x="0px" y="0px"
	 viewBox="0 0 281.139 281.139" style="enable-background:new 0 0 281.139 281.139;" xml:space="preserve">
<g>
	<g>
		<path style="fill:#F9BA48;" d="M274.111,201.483c-18.935,12.122-41.449,18.743-65.599,18.743
			c-67.281,0-121.827-54.546-121.827-121.827c0-41.107,20.359-76.339,51.542-98.399C64.961,4.821,7.028,66.086,7.028,140.569
			c0,77.632,62.938,140.57,140.57,140.57C203.409,281.139,251.413,248.616,274.111,201.483z"/>
		<path style="fill:#333333;" d="M108.842,257.851c-5.032-1.41-9.966-3.168-14.666-5.22l3.758-8.584
			c4.297,1.879,8.818,3.486,13.434,4.784L108.842,257.851z"/>
		<path style="fill:#333333;" d="M84.449,247.473c-39.083-21.414-63.364-62.376-63.364-106.904h9.371
			c0,41.103,22.416,78.921,58.496,98.69L84.449,247.473z"/>
	</g>
</g>
<g>
</g>
<g>
</g>
<g>
</g>
<g>
</g>
<g>
</g>
<g>
</g>
<g>
</g>
<g>
</g>
<g>
</g>
<g>
</g>
<g>
</g>
<g>
</g>
<g>
</g>
<g>
</g>
<g>
</g>
</svg>
