<svg height="512" viewBox="0 0 64 64" width="512" xmlns="http://www.w3.org/2000/svg"><g id="_13-Cloud" data-name="13-Cloud"><path d="m47.466 20.383a13.468 13.468 0 0 0 -7.541 2.3 15.45 15.45 0 0 0 -27.51 6.48 9.149 9.149 0 1 0 -.265 18.294h35.316a13.535 13.535 0 0 0 0-27.069z" fill="#4370ff"/><path d="m47.466 18.346a16.357 16.357 0 0 0 -5.723 1.11 15.632 15.632 0 0 0 -9.81 14.467h4a11.534 11.534 0 1 1 11.533 11.566h-35.316a7.17 7.17 0 0 1 0-14.34l1.919.054.313-1.686a13.441 13.441 0 0 1 19.366-9.517 19.67 19.67 0 0 1 3.369-2.659 17.417 17.417 0 0 0 -26.3 9.878 11.183 11.183 0 0 0 1.333 22.281h35.316a15.577 15.577 0 0 0 0-31.154z"/></g></svg>