<svg height="512pt" viewBox="0 -11 512.00001 512" width="512pt" xmlns="http://www.w3.org/2000/svg"><path d="m152.519531 167.386719c-37.511719-43.953125-47.175781-105.238281-25.011719-158.601563-82.5625 19.433594-133.738281 102.121094-114.300781 184.683594 19.433594 82.5625 102.121094 133.738281 184.683594 114.300781 48.070313-11.316406 87.765625-45.058593 106.679687-90.675781-55.992187 13.214844-114.675781-5.96875-152.050781-49.707031zm0 0" fill="#fbb540"/><path d="m73.199219 359.597656c16.382812-29.144531 51.058593-42.679687 82.851562-32.335937 15-48.589844 66.554688-75.820313 115.144531-60.816407 6.78125 2.09375 13.296876 4.964844 19.421876 8.554688 46.390624-49.542969 124.160156-52.097656 173.703124-5.707031 49.542969 46.394531 52.097657 124.164062 5.707032 173.707031-23.246094 24.828125-55.746094 38.910156-89.757813 38.894531-1.484375 0-2.921875-.164062-4.390625-.21875-1.457031.105469-2.90625.21875-4.390625.21875h-289.804687c-33.949219-.230469-61.28125-27.941406-61.050782-61.894531.207032-30.347656 22.535157-56.003906 52.566407-60.402344zm0 0" fill="#8aced8"/><path d="m314.40625 16.453125-8.253906 24.773437c-2.40625 7.207032-8.0625 12.867188-15.273438 15.269532l-24.773437 8.257812 24.140625 8.042969c7.5625 2.523437 13.394531 8.613281 15.578125 16.28125l8.582031 30.015625 8.578125-30.015625c2.1875-7.667969 8.015625-13.757813 15.582031-16.28125l24.140625-8.042969-24.773437-8.257812c-7.210938-2.402344-12.867188-8.0625-15.273438-15.269532zm0 0" fill="#fece2f"/><g fill="#f3c52d"><path d="m362.707031 189.351562h17.5625v17.5625h-17.5625zm0 0"/><path d="m389.050781 110.3125h17.566407v17.5625h-17.566407zm0 0"/><path d="m327.578125 145.441406h17.566406v17.5625h-17.566406zm0 0"/></g><path d="m152.054688 358.949219h-.421876c-4.84375-.230469-8.589843-4.339844-8.359374-9.183594 0-.003906 0-.003906 0-.003906 2.648437-55.714844 49.960937-98.730469 105.675781-96.078125 29.226562 1.390625 56.410156 15.382812 74.519531 38.363281 3.003906 3.808594 2.347656 9.332031-1.460938 12.335937-3.8125 3-9.332031 2.347657-12.335937-1.464843-28.523437-36.183594-80.980469-42.394531-117.167969-13.871094-18.972656 14.957031-30.535156 37.40625-31.683594 61.539063-.226562 4.679687-4.082031 8.359374-8.765624 8.363281zm0 0" fill="#6fbbc6"/><path d="m263.332031 73.078125 24.140625 8.042969c4.808594 1.609375 8.519532 5.488281 9.914063 10.363281l8.578125 30.015625c1.34375 4.664062 6.207031 7.351562 10.871094 6.011719 2.902343-.835938 5.171874-3.105469 6.007812-6.011719l8.582031-30.015625c1.394531-4.875 5.105469-8.753906 9.914063-10.363281l24.140625-8.042969c4.609375-1.515625 7.117187-6.476563 5.601562-11.085937-.871093-2.652344-2.949219-4.730469-5.601562-5.601563l-24.726563-8.238281c-4.609375-1.527344-8.222656-5.140625-9.757812-9.746094l-8.253906-24.765625c-1.515626-4.605469-6.480469-7.113281-11.085938-5.601563-2.652344.871094-4.730469 2.953126-5.601562 5.601563l-8.253907 24.773437c-1.535156 4.597657-5.144531 8.207032-9.738281 9.75l-24.765625 8.261719c-4.609375 1.515625-7.117187 6.476563-5.601563 11.085938.871094 2.648437 2.949219 4.730469 5.601563 5.601562zm51.074219-28.867187c3.308594 9.652343 10.894531 17.234374 20.550781 20.539062-9.9375 3.617188-17.535156 11.785156-20.417969 21.957031l-.132812.464844-.132812-.464844c-2.886719-10.171875-10.480469-18.339843-20.417969-21.957031 9.65625-3.304688 17.238281-10.886719 20.550781-20.539062zm0 0"/><path d="m362.707031 189.351562h17.5625v17.5625h-17.5625zm0 0"/><path d="m389.050781 110.3125h17.566407v17.5625h-17.566407zm0 0"/><path d="m327.578125 145.441406h17.566406v17.5625h-17.566406zm0 0"/><path d="m380.269531 227.21875c-34.015625-.066406-66.707031 13.203125-91.058593 36.953125-.878907-.429687-1.757813-.816406-2.582032-1.210937 10.824219-12.738282 19.601563-27.078126 26.019532-42.511719 1.855468-4.484375-.273438-9.621094-4.753907-11.476563-1.699219-.703125-3.578125-.855468-5.371093-.433594-77.777344 18.378907-155.730469-29.773437-174.109376-107.554687-7.003906-29.636719-4.476562-60.726563 7.21875-88.84375 1.851563-4.484375-.277343-9.617187-4.757812-11.472656-1.699219-.7031252-3.570312-.855469-5.359375-.4375-87.285156 20.316406-141.570313 107.542969-121.253906 194.824219 13.851562 59.507812 59.949219 106.1875 119.277343 120.78125-22.929687 3.210937-43.308593 16.285156-55.785156 35.789062-37.996094 7.859375-62.421875 45.035156-54.5625 83.03125 6.726563 32.511719 35.292969 55.875 68.492188 56.019531h289.804687c1.371094 0 2.714844-.085937 4.460938-.199219l1.132812.058594c1.054688.070313 2.109375.140625 3.1875.140625 72.753907 0 131.730469-58.976562 131.730469-131.726562 0-72.753907-58.976562-131.730469-131.730469-131.730469zm-362.589843-70.546875c.585937-60.527344 38.851562-114.273437 95.855468-134.636719-25.226562 85.992188 24.035156 176.152344 110.03125 201.378906 21.273438 6.242188 43.605469 8.054688 65.609375 5.332032-5.648437 10.097656-12.492187 19.476562-20.382812 27.9375-43.320313-11.046875-88.734375 7.78125-111.53125 46.234375-78.542969-2.722657-140.542969-67.660157-139.632813-146.246094zm362.589843 316.441406c-.667969 0-1.316406-.050781-1.976562-.097656l-2.105469-.113281c-.5-.039063-1-.023438-1.492188.042968-1.0625.082032-2.125.167969-3.207031.167969h-289.804687c-29.101563-.210937-52.515625-23.976562-52.304688-53.074219.191406-25.996093 19.308594-47.964843 45.023438-51.746093 2.714844-.378907 5.09375-2.003907 6.4375-4.390625 12.699218-23.007813 38.777344-35.207032 64.574218-30.210938-1.140624 5.28125-1.855468 10.648438-2.140624 16.042969-.246094 4.84375 3.484374 8.96875 8.328124 9.210937.011719.003907.019532.003907.03125.003907h.421876c4.691406.003906 8.5625-3.683594 8.78125-8.371094 2.195312-46.023437 41.289062-81.550781 87.3125-79.355469 24.132812 1.152344 46.585937 12.710938 61.542968 31.6875 3 3.808594 8.523438 4.464844 12.332032 1.460938 3.8125-3 4.464843-8.523438 1.464843-12.332032-5.5-6.882812-11.863281-13.027343-18.933593-18.277343 20.769531-18.71875 47.753906-29.046875 75.714843-28.980469 63.054688 0 114.167969 51.117188 114.167969 114.167969s-51.113281 114.164062-114.167969 114.164062zm0 0"/></svg>