<svg height="512pt" viewBox="0 -2 512.00069 512" width="512pt" xmlns="http://www.w3.org/2000/svg"><path d="m379.210938 109.933594c0 8.410156-1.945313 15.875-5.128907 22.324218-9.1875 18.6875-28.648437 28.871094-40.859375 28.871094h-262.796875c-11.300781 0-20.925781-8.777344-21.339843-20.070312-.4375-11.859375 9.050781-21.625 20.828124-21.625h34.953126c2.003906 0 3.414062-1.957032 2.792968-3.863282-10.003906-30.734374 17.0625-62.703124 50.050782-56.007812 1.5.300781 2.984374-.574219 3.417968-2.039062 8.5625-28.894532 35.320313-49.980469 66.996094-49.980469 8.84375 0 17.304688 1.640625 25.09375 4.644531 22.023438 8.476562 38.675781 27.792969 43.410156 51.410156.476563 2.386719 3.164063 3.542969 5.25 2.292969 32.945313-19.726563 77.332032 3.40625 77.332032 44.042969zm0 0" fill="#97bffd"/><path d="m379.210938 109.933594c0 8.410156-1.945313 15.875-5.128907 22.324218h-218.894531c-11.300781 0-20.929688-8.78125-21.34375-20.070312-.433594-11.859375 9.054688-21.625 20.832031-21.625h34.953125c2.003906 0 3.414063-1.957031 2.792969-3.863281-9.996094-30.734375 17.0625-62.699219 50.046875-56 1.496094.304687 2.984375-.566407 3.417969-2.03125 1.734375-5.851563 4.210937-11.382813 7.332031-16.480469 22.023438 8.476562 38.675781 27.792969 43.410156 51.410156.476563 2.386719 3.164063 3.542969 5.25 2.292969 32.945313-19.726563 77.332032 3.40625 77.332032 44.042969zm0 0" fill="#b9d3fd"/><path d="m504.433594 260.175781c-.394532 10.707031-9.519532 19.027344-20.234375 19.027344h-249.144531c-15.566407 0-43.597657-17.476563-43.597657-48.535156 0-38.789063 42.660157-60.757813 73.953125-41.367188 1.652344 1.023438 3.835938.085938 4.195313-1.824219 5.785156-30.675781 32.726562-53.878906 65.089843-53.878906 8.507813 0 16.648438 1.601563 24.113282 4.527344 9.695312 3.789062 18.28125 9.808594 25.128906 17.410156 6.5 7.222656 11.445312 15.890625 14.273438 25.457032.414062 1.386718 1.820312 2.207031 3.238281 1.921874 31.273437-6.347656 56.9375 23.960938 47.449219 53.097657-.585938 1.808593.75 3.664062 2.652343 3.664062h33.136719c11.164062-.003906 20.160156 9.253907 19.746094 20.5zm0 0" fill="#5596fb"/><path d="m369.402344 168.492188c0 7.976562-1.84375 15.050781-4.859375 21.164062-8.710938 17.714844-27.164063 27.371094-38.738281 27.371094h-65.367188c-6.964844 0-11.699219 6.921875-9.347656 13.480468.03125.085938.0625.171876.09375.257813 1.886718 5.351563 7.71875 8.074219 13.042968 6.109375 25.203126-9.292969 54.941407 8.691406 54.941407 38.402344 0 1.335937-.066407 2.644531-.191407 3.925781h-83.921874c-15.566407 0-43.597657-17.476563-43.597657-48.535156 0-40.277344 45.984375-62.414063 77.492188-38.957031 4-32.75 31.90625-58.113282 65.746093-58.113282 8.507813 0 16.644532 1.601563 24.113282 4.527344 6.535156 8.039062 10.59375 18.402344 10.59375 30.367188zm0 0" fill="#2476ed"/><path d="m111.117188 190.164062c-3.726563-1.886718-8.269532-.394531-10.15625 3.328126l-14.285157 28.207031c-2.5625 5.058593 1.167969 10.96875 6.738281 10.96875 2.753907 0 5.414063-1.515625 6.746094-4.140625l14.28125-28.207032c1.886719-3.722656.398438-8.269531-3.324218-10.15625zm0 0"/><path d="m159.714844 232.667969c2.75 0 5.402344-1.507813 6.738281-4.128907l14.367187-28.207031c1.890626-3.71875.414063-8.265625-3.304687-10.160156-3.714844-1.894531-8.269531-.414063-10.164063 3.304687l-14.363281 28.207032c-2.582031 5.074218 1.171875 10.984375 6.726563 10.984375zm0 0"/><path d="m68.191406 274.929688c-3.726562-1.882813-8.269531-.394532-10.15625 3.328124l-14.285156 28.207032c-1.882812 3.722656-.394531 8.269531 3.328125 10.152344 3.742187 1.894531 8.28125.375 10.15625-3.324219l14.285156-28.207031c1.882813-3.722657.394531-8.269532-3.328125-10.15625zm0 0"/><path d="m134.34375 274.9375c-3.714844-1.890625-8.265625-.414062-10.160156 3.304688l-14.363282 28.207031c-1.894531 3.71875-.414062 8.265625 3.300782 10.160156 3.734375 1.902344 8.277344.398437 10.164062-3.300781l14.363282-28.207032c1.894531-3.71875.414062-8.269531-3.304688-10.164062zm0 0"/><path d="m200.503906 274.945312c-3.714844-1.898437-8.269531-.433593-10.171875 3.28125l-14.445312 28.207032c-1.902344 3.714844-.433594 8.265625 3.28125 10.167968 3.742187 1.917969 8.28125.402344 10.167969-3.277343l14.445312-28.207031c1.902344-3.714844.433594-8.269532-3.277344-10.171876zm0 0"/><path d="m25.265625 359.695312c-3.726563-1.882812-8.269531-.394531-10.15625 3.328126l-14.285156 28.207031c-2.5625 5.058593 1.167969 10.972656 6.734375 10.972656 2.757812 0 5.417968-1.515625 6.746094-4.144531l14.285156-28.207032c1.886718-3.722656.398437-8.269531-3.324219-10.15625zm0 0"/><path d="m91.175781 359.707031c-3.714843-1.894531-8.265625-.417969-10.160156 3.300781l-14.367187 28.207032c-1.890626 3.71875-.414063 8.269531 3.304687 10.160156 3.734375 1.902344 8.277344.398438 10.160156-3.300781l14.367188-28.207031c1.890625-3.71875.414062-8.269532-3.304688-10.160157zm0 0"/><path d="m157.085938 359.714844c-3.710938-1.902344-8.261719-.4375-10.167969 3.277344l-14.445313 28.207031c-1.902344 3.714843-.433594 8.265625 3.28125 10.167969 3.746094 1.917968 8.28125.402343 10.167969-3.277344l14.445313-28.207032c1.902343-3.714843.433593-8.265624-3.28125-10.167968zm0 0"/><path d="m456.402344 271.640625h-221.351563c-5.46875 0-14.554687-3.285156-22.515625-10.617187-20.492187-18.886719-17.011718-50.675782 5.351563-64.796876 3.523437-2.234374 4.582031-6.898437 2.347656-10.425781-2.226563-3.523437-6.890625-4.582031-10.417969-2.347656-16.472656 10.40625-25.910156 27.613281-25.921875 47.21875 0 34.230469 30.304688 56.078125 51.15625 56.078125h221.351563c4.171875 0 7.554687-3.371094 7.554687-7.554688 0-4.167968-3.382812-7.554687-7.554687-7.554687zm0 0"/><path d="m484.679688 232.121094h-27.015626c5.808594-31.527344-21.308593-61.070313-53.515624-57.28125-5.054688-14.113282-14.171876-26.019532-25.816407-34.542969 3.425781-5.597656 6.054688-11.976563 7.421875-19.097656.789063-4.089844-1.890625-8.058594-5.980468-8.84375-4.113282-.796875-8.0625 1.890625-8.855469 5.980469-1.039063 5.371093-3.042969 10.15625-5.640625 14.328124-9.371094-4.273437-19.746094-6.621093-30.585938-6.621093-23.050781 0-43.890625 10.660156-57.5 27.53125h-207.230468c-7.324219 0-13.285157-5.953125-13.285157-13.285157 0-7.324218 5.960938-13.289062 13.285157-13.289062h39.21875c5.425781 0 9.078124-5.566406 6.929687-10.546875-11.660156-27.101563 13.171875-56.695313 42.410156-48.949219 3.984375 1.074219 8.191407-1.304687 9.257813-5.4375 7.003906-27.644531 31.84375-46.957031 60.402344-46.957031 31.453124 0 58.035156 23.503906 61.855468 54.664063.691406 5.726562 7.339844 8.613281 12.007813 5.144531 23.289062-17.363281 55.964843-6.960938 66.375 18.113281 1.601562 3.847656 6.023437 5.683594 9.871093 4.082031 3.859376-1.601562 5.683594-6.027343 4.082032-9.875-12.457032-29.988281-48.992188-45.007812-79.53125-30.390625-9.078125-33.082031-39.410156-56.847656-74.660156-56.847656-33.082032 0-62.144532 20.851562-72.984376 51.507812-16.078124-1.941406-31.34375 3.671876-42.429687 15.070313-11.164063 11.488281-17.082031 28.316406-13.800781 45.3125h-29.003906c-15.652344 0-28.398438 12.742187-28.398438 28.398437 0 15.664063 12.746094 28.398438 28.398438 28.398438h197.808593c-1.660156 3.546875-3.039062 7.253906-4.117187 11.089844-6.5-3.042969-13.5-4.792969-20.691406-5.136719-4.191407-.203125-7.707032 3.011719-7.910157 7.183594-.199219 4.167969 3.023438 7.703125 7.183594 7.90625 7.96875.382812 15.644531 3.164062 22.203125 8.050781 4.632812 3.441406 11.289062.613281 12.007812-5.148438 1.066407-8.765624 4.050782-16.875 8.492188-23.945312 27.523438-43.753906 94.003906-33.113281 106.640625 16.679688 1.019531 4.039062 5.15625 6.53125 9.257813 5.453124 2.992187-.796874 6.015624-1.199218 8.976562-1.199218 18.171875 0 33.523438 15.511718 33.523438 33.878906 0 12.125-5.941407 14.546875-2.132813 20.328125 1.398437 2.125 3.765625 3.402344 6.304687 3.402344h37.171876c6.738281 0 12.210937 5.472656 12.210937 12.210937 0 6.316406-4.726563 11.535156-11 12.148438-4.152344.402344-7.195313 4.089844-6.792969 8.25 1.460938 14.875 32.902344 4.1875 32.902344-20.398438 0-15.070312-12.25-27.320312-27.320312-27.320312zm0 0"/><path d="m258.300781 306.371094c-3.722656-1.886719-8.269531-.398438-10.152343 3.328125l-13.542969 26.738281c-1.882813 3.722656-.394531 8.269531 3.328125 10.15625 3.742187 1.894531 8.28125.375 10.152344-3.328125l13.542968-26.742187c1.882813-3.722657.394532-8.269532-3.328125-10.152344zm0 0"/><path d="m321.25 306.378906c-3.714844-1.894531-8.265625-.417968-10.160156 3.304688l-13.617188 26.738281c-1.894531 3.71875-.414062 8.269531 3.304688 10.164063 3.714844 1.894531 8.265625.410156 10.160156-3.304688l13.617188-26.742188c1.894531-3.71875.414062-8.265624-3.304688-10.160156zm0 0"/><path d="m384.203125 306.386719c-3.714844-1.902344-8.265625-.433594-10.167969 3.28125l-13.699218 26.738281c-1.902344 3.714844-.433594 8.269531 3.28125 10.167969 3.746093 1.921875 8.285156.402343 10.171874-3.277344l13.695313-26.742187c1.902344-3.710938.433594-8.265626-3.28125-10.167969zm0 0"/><path d="m447.152344 306.394531c-3.703125-1.910156-8.261719-.453125-10.175782 3.257813l-13.773437 26.738281c-1.910156 3.710937-.449219 8.265625 3.257813 10.179687 3.71875 1.914063 8.269531.441407 10.175781-3.257812l13.773437-26.742188c1.914063-3.710937.453125-8.265624-3.257812-10.175781zm0 0"/><path d="m217.605469 386.734375c-3.722657-1.886719-8.269531-.398437-10.15625 3.328125l-13.539063 26.738281c-1.886718 3.722657-.394531 8.269531 3.328125 10.15625 3.742188 1.894531 8.277344.371094 10.152344-3.328125l13.542969-26.742187c1.882812-3.722657.394531-8.269531-3.328125-10.152344zm0 0"/><path d="m280.324219 386.742188c-3.714844-1.894532-8.265625-.414063-10.160157 3.304687l-13.621093 26.738281c-1.890625 3.71875-.414063 8.269532 3.304687 10.160156 3.71875 1.898438 8.269532.414063 10.164063-3.300781l13.617187-26.742187c1.894532-3.71875.414063-8.265625-3.304687-10.160156zm0 0"/><path d="m343.046875 386.75c-3.714844-1.902344-8.265625-.433594-10.171875 3.28125l-13.695312 26.738281c-1.902344 3.714844-.433594 8.265625 3.28125 10.167969 3.746093 1.917969 8.28125.402344 10.167968-3.277344l13.699219-26.742187c1.898437-3.714844.429687-8.265625-3.28125-10.167969zm0 0"/><path d="m405.765625 386.757812c-3.707031-1.910156-8.265625-.453124-10.179687 3.257813l-13.769532 26.738281c-1.910156 3.710938-.453125 8.265625 3.257813 10.179688 3.714843 1.914062 8.269531.441406 10.175781-3.257813l13.773438-26.742187c1.910156-3.710938.449218-8.265625-3.257813-10.175782zm0 0"/><path d="m176.910156 467.097656c-3.722656-1.886718-8.269531-.394531-10.15625 3.328125l-13.539062 26.738281c-1.886719 3.722657-.398438 8.269532 3.324218 10.15625 3.746094 1.894532 8.28125.375 10.15625-3.328124l13.542969-26.742188c1.882813-3.722656.394531-8.269531-3.328125-10.152344zm0 0"/><path d="m239.398438 467.105469c-3.714844-1.894531-8.265626-.417969-10.160157 3.304687l-13.621093 26.738282c-1.894532 3.71875-.414063 8.269531 3.304687 10.164062 3.734375 1.902344 8.273437.394531 10.160156-3.304688l13.621094-26.742187c1.894531-3.71875.414063-8.265625-3.304687-10.160156zm0 0"/><path d="m301.886719 467.113281c-3.714844-1.902343-8.265625-.433593-10.167969 3.277344l-13.699219 26.742187c-1.902343 3.714844-.433593 8.265626 3.28125 10.167969 3.746094 1.917969 8.285157.402344 10.171875-3.277343l13.695313-26.742188c1.902343-3.714844.433593-8.265625-3.28125-10.167969zm0 0"/><path d="m364.375 467.121094c-3.707031-1.910156-8.265625-.453125-10.175781 3.257812l-13.773438 26.738282c-1.910156 3.710937-.453125 8.265624 3.257813 10.175781 3.714844 1.917969 8.269531.445312 10.175781-3.253907l13.773437-26.742187c1.910157-3.710937.453126-8.265625-3.257812-10.175781zm0 0"/></svg>