<?xml version="1.0" encoding="iso-8859-1"?>
<!-- Generator: Adobe Illustrator 19.0.0, SVG Export Plug-In . SVG Version: 6.00 Build 0)  -->
<svg version="1.1" id="Capa_1" xmlns="http://www.w3.org/2000/svg" xmlns:xlink="http://www.w3.org/1999/xlink" x="0px" y="0px"
	 viewBox="0 0 480 480" style="enable-background:new 0 0 480 480;" xml:space="preserve">
<path d="M133.656,250.337l-40-40c-3.178-3.069-8.243-2.981-11.312,0.197c-2.994,3.1-2.994,8.015,0,11.115l40,40
	c3.178,3.069,8.243,2.982,11.312-0.196C136.65,258.353,136.65,253.438,133.656,250.337z"/>
<path d="M413.656,402.337l-40-40c-3.178-3.07-8.242-2.982-11.312,0.196c-2.995,3.1-2.995,8.016,0,11.116l40,40
	c3.178,3.07,8.242,2.982,11.312-0.196C416.651,410.353,416.651,405.438,413.656,402.337z"/>
<path d="M341.656,210.337c-3.178-3.07-8.242-2.982-11.312,0.196c-2.994,3.1-2.994,8.015,0,11.116l32,32
	c3.178,3.07,8.242,2.982,11.312-0.196c2.995-3.1,2.995-8.016,0-11.116L341.656,210.337z"/>
<path d="M210.344,234.337c-3.123,3.124-3.123,8.188,0,11.312l56,56c3.178,3.07,8.242,2.982,11.312-0.196
	c2.995-3.1,2.995-8.016,0-11.116l-56-56C218.532,231.214,213.468,231.214,210.344,234.337L210.344,234.337z"/>
<path d="M229.656,402.337l-40-40c-3.178-3.069-8.243-2.982-11.312,0.196c-2.994,3.1-2.994,8.015,0,11.116l40,40
	c3.178,3.069,8.243,2.982,11.312-0.196C232.65,410.353,232.65,405.438,229.656,402.337z"/>
<path style="fill:#ADF0FF;" d="M56,87.993c5.791,0.01,11.533,1.073,16.944,3.136c-0.599-3.682-0.915-7.405-0.944-11.136
	c0.015-39.764,32.262-71.988,72.027-71.973c26.616,0.01,51.056,14.703,63.549,38.205c23.029-26.762,63.393-29.788,90.155-6.759
	c12.626,10.865,20.513,26.23,21.981,42.823c25.242-17.872,60.192-11.897,78.064,13.345c17.872,25.242,11.897,60.192-13.345,78.064
	c-9.481,6.713-20.815,10.311-32.431,10.296H56c-26.51,0-48-21.49-48-48S29.49,87.993,56,87.993z"/>
<g>
	<circle style="fill:#75E6FF;" cx="168" cy="295.993" r="24"/>
	<circle style="fill:#75E6FF;" cx="448" cy="447.993" r="24"/>
	<circle style="fill:#75E6FF;" cx="408" cy="287.993" r="24"/>
	<circle style="fill:#75E6FF;" cx="312" cy="335.993" r="24"/>
	<circle style="fill:#75E6FF;" cx="264" cy="447.993" r="24"/>
</g>
<path d="M416,127.993c0.001-35.346-28.651-64.001-63.997-64.003c-9.106,0-18.107,1.942-26.403,5.699
	c-10.091-38.426-49.421-61.397-87.848-51.307c-10.586,2.78-20.397,7.938-28.688,15.083C183.356-2.469,133.386-10.759,97.452,14.949
	C76.463,29.965,64.006,54.185,64,79.993v0.584c-2.649-0.391-5.323-0.586-8-0.584c-30.928,0-56,25.072-56,56s25.072,56,56,56h296
	C387.33,191.954,415.96,163.323,416,127.993z M16,135.993c-0.053-22.038,17.77-39.946,39.809-39.999
	c4.888-0.012,9.736,0.875,14.303,2.615c4.133,1.562,8.75-0.522,10.312-4.655c0.487-1.288,0.633-2.68,0.424-4.041
	c-5.718-34.639,17.727-67.355,52.366-73.073c3.565-0.588,7.173-0.872,10.786-0.847c23.68-0.015,45.428,13.066,56.512,33.992
	c2.074,3.901,6.918,5.383,10.819,3.309c0.874-0.465,1.654-1.087,2.301-1.837c20.141-23.418,55.453-26.074,78.871-5.933
	c11.051,9.505,17.955,22.949,19.241,37.469c0.388,4.401,4.271,7.654,8.672,7.266c1.408-0.124,2.758-0.619,3.912-1.434
	c21.632-15.324,51.591-10.21,66.914,11.422s10.21,51.591-11.422,66.914c-8.132,5.761-17.855,8.847-27.821,8.832H56
	C33.92,175.967,16.026,158.074,16,135.993z"/>
<path d="M200,295.993c0-17.673-14.327-32-32-32s-32,14.327-32,32s14.327,32,32,32S200,313.666,200,295.993z M168,311.993
	c-8.837,0-16-7.163-16-16s7.163-16,16-16s16,7.163,16,16S176.837,311.993,168,311.993z"/>
<path d="M448,415.993c-17.673,0-32,14.327-32,32s14.327,32,32,32s32-14.327,32-32S465.673,415.993,448,415.993z M448,463.993
	c-8.837,0-16-7.163-16-16s7.163-16,16-16s16,7.163,16,16S456.837,463.993,448,463.993z"/>
<path d="M408,319.993c17.673,0,32-14.327,32-32s-14.327-32-32-32s-32,14.327-32,32S390.327,319.993,408,319.993z M408,271.993
	c8.837,0,16,7.163,16,16s-7.163,16-16,16s-16-7.163-16-16S399.163,271.993,408,271.993z"/>
<path d="M312,303.993c-17.673,0-32,14.327-32,32s14.327,32,32,32s32-14.327,32-32S329.673,303.993,312,303.993z M312,351.993
	c-8.837,0-16-7.163-16-16s7.163-16,16-16s16,7.163,16,16S320.837,351.993,312,351.993z"/>
<path d="M264,415.993c-17.673,0-32,14.327-32,32s14.327,32,32,32s32-14.327,32-32S281.673,415.993,264,415.993z M264,463.993
	c-8.837,0-16-7.163-16-16s7.163-16,16-16s16,7.163,16,16S272.837,463.993,264,463.993z"/>
<g>
</g>
<g>
</g>
<g>
</g>
<g>
</g>
<g>
</g>
<g>
</g>
<g>
</g>
<g>
</g>
<g>
</g>
<g>
</g>
<g>
</g>
<g>
</g>
<g>
</g>
<g>
</g>
<g>
</g>
</svg>
