<svg id="Layer_1" data-name="Layer 1" xmlns="http://www.w3.org/2000/svg" viewBox="0 0 512 512"><defs><style>.cls-1{fill:#f0f7ff;}.cls-2{fill:#e1eaf4;}.cls-3{fill:#6b287c;}</style></defs><title>clouds-filled</title><path class="cls-1" d="M442.67,266.67a58.64,58.64,0,0,0,4.81-117.09A106.61,106.61,0,0,0,238.77,131a69.33,69.33,0,1,0-20.1,135.68Z"/><path class="cls-2" d="M447.47,149.58A106.55,106.55,0,0,0,270.87,80a106.36,106.36,0,0,1,139.27,90.86,58.59,58.59,0,0,1,41,95.08,58.61,58.61,0,0,0-3.62-116.42Z"/><path class="cls-1" d="M304,320a58.64,58.64,0,0,0,4.81-117.09A106.61,106.61,0,0,0,100.1,184.32,69.33,69.33,0,1,0,80,320Z"/><path class="cls-2" d="M308.81,202.91A106.55,106.55,0,0,0,132.2,133.38a106.36,106.36,0,0,1,139.27,90.86,58.59,58.59,0,0,1,41,95.08,58.61,58.61,0,0,0-3.62-116.42Z"/><path class="cls-3" d="M457,140.23A116.44,116.44,0,0,0,441.58,99a10.67,10.67,0,1,0-18.19,11.14,95.06,95.06,0,0,1,13.46,40.45,10.67,10.67,0,0,0,9.76,9.63A48,48,0,0,1,442.67,256H373.11a69.8,69.8,0,0,0-54.8-62.44,116.66,116.66,0,0,0-59-83.16A96.29,96.29,0,0,1,341.33,64a92.8,92.8,0,0,1,10.89.61,10.66,10.66,0,1,0,2.54-21.18,113.28,113.28,0,0,0-13.43-.77,117.74,117.74,0,0,0-101.79,59.19A117.57,117.57,0,0,0,93,171.74,80,80,0,1,0,80,330.67h37.55a10.67,10.67,0,1,0,0-21.33H80a58.67,58.67,0,1,1,17-114.8,10.67,10.67,0,0,0,13.35-7.32A95.93,95.93,0,0,1,298.18,204a10.66,10.66,0,0,0,9.75,9.6A48,48,0,0,1,304,309.33H207.79a10.67,10.67,0,1,0,0,21.33H304a69.44,69.44,0,0,0,67.45-53.33h71.22A69.41,69.41,0,0,0,512,208C512,175.15,488.45,146.91,457,140.23Z"/><path class="cls-3" d="M384.29,74.15a92.53,92.53,0,0,1,12.37,7.41c1.8,1.28,3.5,2.6,5.21,4a10.67,10.67,0,1,0,13.66-16.39c-2.14-1.78-4.27-3.44-6.53-5A113.23,113.23,0,0,0,393.73,55a10.66,10.66,0,1,0-9.44,19.13Z"/><path class="cls-3" d="M181.55,320a10.67,10.67,0,0,0-10.67-10.67H154.45a10.67,10.67,0,1,0,0,21.33h16.43A10.67,10.67,0,0,0,181.55,320Z"/><circle class="cls-3" cx="229.33" cy="384" r="10.67"/><circle class="cls-3" cx="106.67" cy="400" r="16"/><circle class="cls-3" cx="362.67" cy="400" r="16"/><circle class="cls-3" cx="442.67" cy="341.33" r="10.67"/><circle class="cls-3" cx="282.67" cy="442.67" r="10.67"/><circle class="cls-3" cx="176" cy="458.67" r="10.67"/></svg>