<svg height="480pt" viewBox="0 0 480 480.00052" width="480pt" xmlns="http://www.w3.org/2000/svg"><path d="m292 56c15.464844 0 28 12.535156 28 28s-12.535156 28-28 28h-44c0 13.253906-10.746094 24-24 24s-24-10.746094-24-24h-12c-15.464844 0-28-12.535156-28-28s12.535156-28 28-28h12.800781c-.511719-2.636719-.78125-5.3125-.800781-8 0-22.089844 17.910156-40 40-40s40 17.910156 40 40c-.019531 2.6875-.289062 5.363281-.800781 8zm0 0" fill="#ffe477"/><path d="m268 392c15.464844 0 28 12.535156 28 28s-12.535156 28-28 28h-44c0 13.253906-10.746094 24-24 24s-24-10.746094-24-24h-12c-15.464844 0-28-12.535156-28-28s12.535156-28 28-28h12.800781c-.511719-2.636719-.78125-5.3125-.800781-8 .011719-12.585938 5.9375-24.4375 16-32 14.222656-10.667969 33.777344-10.667969 48 0 10.0625 7.5625 15.988281 19.414062 16 32-.019531 2.6875-.289062 5.363281-.800781 8zm0 0" fill="#d9ccbc"/><path d="m140 144c15.464844 0 28 12.535156 28 28s-12.535156 28-28 28h-44c0 13.253906-10.746094 24-24 24s-24-10.746094-24-24h-12c-15.464844 0-28-12.535156-28-28s12.535156-28 28-28h12.800781c-.511719-2.636719-.78125-5.3125-.800781-8 0-22.089844 17.910156-40 40-40s40 17.910156 40 40c-.019531 2.6875-.289062 5.363281-.800781 8zm0 0" fill="#d8d7da"/><path d="m376 104v16c48.601562 0 88 39.398438 88 88s-39.398438 88-88 88h-368v16h368c57.4375 0 104-46.5625 104-104s-46.5625-104-104-104zm0 0"/><path d="m358.320312 344h-115.839843c-16.042969-10.667969-36.917969-10.667969-52.960938 0h-181.519531v16h166.496094c-4.25 7.285156-6.492188 15.566406-6.496094 24h-4c-19.882812 0-36 16.117188-36 36s16.117188 36 36 36h5.015625c3.648437 14.128906 16.390625 24 30.984375 24s27.335938-9.871094 30.984375-24h37.015625c19.882812 0 36-16.117188 36-36s-16.117188-36-36-36h-4c-.003906-8.433594-2.246094-16.714844-6.496094-24h100.800782c19.796874.480469 36.753906 14.304688 41.207031 33.601562 1.835937 11.570313-1.476563 23.371094-9.074219 32.292969s-18.71875 14.074219-30.4375 14.105469v16c16.382812-.027344 31.9375-7.210938 42.578125-19.671875 10.640625-12.457031 15.304687-28.941406 12.765625-45.128906-5.71875-27.078125-29.351562-46.640625-57.023438-47.199219zm-90.320312 56c11.046875 0 20 8.953125 20 20s-8.953125 20-20 20h-44c-4.417969 0-8 3.582031-8 8 0 8.835938-7.164062 16-16 16s-16-7.164062-16-16c0-4.417969-3.582031-8-8-8h-12c-11.046875 0-20-8.953125-20-20s8.953125-20 20-20h12.800781c2.402344 0 4.675781-1.078125 6.199219-2.941406 1.519531-1.859375 2.121094-4.304688 1.640625-6.660156-2.601563-12.71875 2.746094-25.75 13.527344-32.980469 10.78125-7.234375 24.867187-7.234375 35.648437 0 10.785156 7.230469 16.128906 20.261719 13.527344 32.980469-.480469 2.359374.125 4.804687 1.648438 6.667968 1.523437 1.863282 3.800781 2.9375 6.207031 2.933594zm0 0"/><path d="m280 248h-272v16h272c30.914062-.035156 55.964844-25.085938 56-56-.128906-15.742188-6.730469-30.738281-18.253906-41.464844-10.210938-9.898437-24.042969-15.15625-38.25-14.535156-21.527344 2.207031-39.832032 16.671875-46.960938 37.105469l14.929688 5.757812c4.890625-14.585937 17.753906-25.046875 33.03125-26.863281 9.796875-.351562 19.304687 3.34375 26.296875 10.214844 8.304687 7.691406 13.082031 18.464844 13.207031 29.785156-.027344 22.082031-17.917969 39.972656-40 40zm0 0"/><path d="m36 208h5.015625c3.648437 14.128906 16.390625 24 30.984375 24s27.335938-9.871094 30.984375-24h37.015625c19.882812 0 36-16.117188 36-36s-16.117188-36-36-36h-4c0-26.507812-21.488281-48-48-48-26.507812 0-48 21.492188-48 48h-4c-19.882812 0-36 16.117188-36 36s16.117188 36 36 36zm0-56h12.800781c2.402344 0 4.675781-1.078125 6.199219-2.941406 1.519531-1.859375 2.121094-4.304688 1.640625-6.660156-2.601563-12.71875 2.746094-25.75 13.527344-32.980469 10.78125-7.234375 24.867187-7.234375 35.648437 0 10.785156 7.230469 16.128906 20.261719 13.527344 32.980469-.480469 2.359374.125 4.804687 1.648438 6.667968 1.523437 1.863282 3.800781 2.9375 6.207031 2.933594h12.800781c11.046875 0 20 8.953125 20 20s-8.953125 20-20 20h-44c-4.417969 0-8 3.582031-8 8 0 8.835938-7.164062 16-16 16s-16-7.164062-16-16c0-4.417969-3.582031-8-8-8h-12c-11.046875 0-20-8.953125-20-20s8.953125-20 20-20zm0 0"/><path d="m188 120h5.015625c3.648437 14.128906 16.390625 24 30.984375 24s27.335938-9.871094 30.984375-24h37.015625c19.882812 0 36-16.117188 36-36s-16.117188-36-36-36h-4c0-26.507812-21.488281-48-48-48-26.507812 0-48 21.492188-48 48h-4c-19.882812 0-36 16.117188-36 36s16.117188 36 36 36zm0-56h12.800781c2.402344 0 4.675781-1.078125 6.199219-2.941406 1.519531-1.859375 2.121094-4.304688 1.640625-6.660156-2.601563-12.71875 2.746094-25.75 13.527344-32.980469 10.78125-7.234375 24.867187-7.234375 35.648437 0 10.785156 7.230469 16.128906 20.261719 13.527344 32.980469-.480469 2.359374.125 4.804687 1.648438 6.667968 1.523437 1.863282 3.800781 2.9375 6.207031 2.933594h12.800781c11.046875 0 20 8.953125 20 20s-8.953125 20-20 20h-44c-4.417969 0-8 3.582031-8 8 0 8.835938-7.164062 16-16 16s-16-7.164062-16-16c0-4.417969-3.582031-8-8-8h-12c-11.046875 0-20-8.953125-20-20s8.953125-20 20-20zm0 0"/></svg>